<svg xmlns="http://www.w3.org/2000/svg" width="1024" height="1024" viewBox="0 0 1024 1024" version="1.1"><path d="M 228.991 187.250 C 228.963 191.258, 278.119 756.112, 278.742 758.940 L 279.500 762.380 316.500 772.657 C 351.640 782.416, 357 783.714, 357 782.463 C 357 782.168, 363.349 757.755, 371.110 728.213 L 385.219 674.500 379.077 602.500 C 375.698 562.900, 372.949 529.938, 372.967 529.250 C 372.992 528.284, 378.750 528, 398.327 528 L 423.654 528 438.338 471.750 C 446.415 440.813, 453.018 415.163, 453.012 414.750 C 453.005 414.337, 432.750 414, 408 414 C 367.287 414, 363 413.847, 363 412.389 C 363 409.770, 354.080 305.845, 353.504 301.750 L 352.976 298 418.450 298 L 483.923 298 484.896 294.250 C 485.431 292.188, 491.973 267.217, 499.434 238.761 C 506.895 210.304, 513 186.791, 513 186.511 C 513 186.230, 449.100 186, 371 186 C 258.071 186, 228.998 186.256, 228.991 187.250 M 570.503 187.250 C 570.083 188.458, 543.786 289.681, 542.445 295.250 L 541.783 298 606.490 298 L 671.196 298 670.569 303.750 C 670.225 306.913, 668.168 330.425, 666 356 C 663.832 381.575, 661.776 405.085, 661.431 408.244 L 660.805 413.987 585.721 414.244 L 510.636 414.500 496.368 469 C 488.520 498.975, 481.844 524.513, 481.531 525.750 L 480.962 528 566.053 528 L 651.144 528 650.537 533.250 C 650.203 536.138, 647.033 568.825, 643.492 605.890 C 639.951 642.954, 636.842 673.491, 636.583 673.750 C 636.184 674.149, 548.593 698.031, 520.377 705.434 L 511.254 707.827 475.120 698.073 L 438.985 688.319 437.941 691.910 C 432.994 708.931, 410.397 797.646, 410.879 798.153 C 411.221 798.512, 433.775 804.959, 461 812.479 C 494.443 821.717, 511.473 825.986, 513.500 825.637 C 517.692 824.917, 743.965 762.368, 744.571 761.763 C 744.842 761.491, 756.059 634.421, 769.498 479.385 C 782.936 324.348, 794.216 194.912, 794.564 191.750 L 795.196 186 683.067 186 C 594.262 186, 570.847 186.260, 570.503 187.250" stroke="none" fill="#555551" fill-rule="evenodd"/><path d="M 61.059 4.250 C 61.091 6.588, 79.431 213.684, 101.814 464.465 L 142.510 920.430 325.505 972.181 C 426.152 1000.643, 509.625 1023.932, 511 1023.932 C 512.375 1023.933, 596.298 1000.646, 697.495 972.184 L 881.490 920.435 922.186 464.467 C 944.569 213.685, 962.909 6.588, 962.941 4.250 L 963 0 512 0 L 61 0 61.059 4.250 M 228.991 187.250 C 228.963 191.258, 278.119 756.112, 278.742 758.940 L 279.500 762.380 316.500 772.657 C 351.640 782.416, 357 783.714, 357 782.463 C 357 782.168, 363.349 757.755, 371.110 728.213 L 385.219 674.500 379.077 602.500 C 375.698 562.900, 372.949 529.938, 372.967 529.250 C 372.992 528.284, 378.750 528, 398.327 528 L 423.654 528 438.338 471.750 C 446.415 440.813, 453.018 415.163, 453.012 414.750 C 453.005 414.337, 432.750 414, 408 414 C 367.287 414, 363 413.847, 363 412.389 C 363 409.770, 354.080 305.845, 353.504 301.750 L 352.976 298 418.450 298 L 483.923 298 484.896 294.250 C 485.431 292.188, 491.973 267.217, 499.434 238.761 C 506.895 210.304, 513 186.791, 513 186.511 C 513 186.230, 449.100 186, 371 186 C 258.071 186, 228.998 186.256, 228.991 187.250 M 570.503 187.250 C 570.083 188.458, 543.786 289.681, 542.445 295.250 L 541.783 298 606.490 298 L 671.196 298 670.569 303.750 C 670.225 306.913, 668.168 330.425, 666 356 C 663.832 381.575, 661.776 405.085, 661.431 408.244 L 660.805 413.987 585.721 414.244 L 510.636 414.500 496.368 469 C 488.520 498.975, 481.844 524.513, 481.531 525.750 L 480.962 528 566.053 528 L 651.144 528 650.537 533.250 C 650.203 536.138, 647.033 568.825, 643.492 605.890 C 639.951 642.954, 636.842 673.491, 636.583 673.750 C 636.184 674.149, 548.593 698.031, 520.377 705.434 L 511.254 707.827 475.120 698.073 L 438.985 688.319 437.941 691.910 C 432.994 708.931, 410.397 797.646, 410.879 798.153 C 411.221 798.512, 433.775 804.959, 461 812.479 C 494.443 821.717, 511.473 825.986, 513.500 825.637 C 517.692 824.917, 743.965 762.368, 744.571 761.763 C 744.842 761.491, 756.059 634.421, 769.498 479.385 C 782.936 324.348, 794.216 194.912, 794.564 191.750 L 795.196 186 683.067 186 C 594.262 186, 570.847 186.260, 570.503 187.250" stroke="none" fill="#f3de4d" fill-rule="evenodd"/></svg>