<?xml version="1.0" encoding="UTF-8"?>
<svg version="1.1" xmlns="http://www.w3.org/2000/svg" width="1096" height="1200">
<path d="M0 0 C20.24443969 0.31539366 40.47530831 0.85296422 60.703125 1.734375 C61.46954693 1.76772131 62.23596886 1.80106762 63.02561569 1.83542442 C70.75174445 2.17277519 78.47739075 2.51969036 86.20249462 2.87974453 C108.11673966 3.89824319 129.88406509 4.24080871 151.8125 3.5 C162.88041036 3.13069787 173.92552283 2.93277444 185 3 C184.99666908 4.07994987 184.99666908 4.07994987 184.99327087 5.18171692 C184.97323834 11.96492087 184.95801071 18.7481204 184.94818783 25.53134632 C184.94296804 29.01871311 184.93588676 32.50605547 184.92456055 35.9934082 C184.91162246 40.00211828 184.90676431 44.01080267 184.90234375 48.01953125 C184.89718246 49.27272659 184.89202118 50.52592194 184.88670349 51.8170929 C184.88662796 52.97806992 184.88655243 54.13904694 184.88647461 55.33520508 C184.88314369 56.87075798 184.88314369 56.87075798 184.87974548 58.43733215 C184.88949166 61.12082772 184.88949166 61.12082772 186 64 C202.19778344 59.8245214 217.56655921 54.93158236 232.87573242 48.21386719 C239.76537085 45.21385218 246.56803168 42.85424194 253.82177734 40.88916016 C257.18496936 39.94825177 260.409345 38.81433242 263.66601562 37.5625 C279.57447885 31.47192185 279.57447885 31.47192185 286 33 C288.7933535 35.21451102 290.80432939 37.55188115 292.9765625 40.375 C294.76714022 42.69791164 296.38345425 44.29170501 298.6875 46.0625 C302.06267057 48.81206687 304.04270665 51.98526954 306.33984375 55.6484375 C308.15719106 58.22265652 310.16321579 60.25942071 312.4375 62.4375 C316.28527531 66.13777726 319.17453773 69.9863767 322.1328125 74.41015625 C324.90827614 78.2598056 328.16230075 81.61508507 331.39453125 85.08203125 C334.55940539 88.62650049 337.39234847 92.35572635 340.24047852 96.15454102 C343.06006539 99.87728113 346.06039143 103.331198 349.25 106.75 C352.81545109 110.57606727 355.67351578 114.41204208 358.4453125 118.828125 C360.22314268 121.31172696 362.22361412 123.27292654 364.4375 125.375 C368.54722977 129.31320515 371.27262896 133.4543816 374.1875 138.3125 C376.62965527 141.93362678 379.63622033 144.68322875 382.796875 147.671875 C385.92256254 150.97490651 388.11078541 154.6914841 390.453125 158.5703125 C392.30342128 161.47658595 394.50695142 163.63160385 397 166 C403.14025036 173.19611352 408.47784666 181.15321705 413.67675781 189.04736328 C414.95936123 190.99704506 414.95936123 190.99704506 416.37792969 192.71435547 C423.89632097 202.76366309 422.29736279 219.08727035 421.84765625 230.96484375 C421.82325029 231.70363203 421.79884434 232.44242031 421.77369881 233.20359612 C421.15947922 251.4732979 419.46458453 269.64143731 417.70067215 287.82955551 C417.24837489 292.52649365 416.81181987 297.22490131 416.37280273 301.9230957 C414.66180444 320.16121509 412.87286539 338.39071053 411.0065403 356.61357117 C410.45457203 362.01144325 409.90787021 367.40985152 409.36191082 372.80833435 C408.92066342 377.16898215 408.47617477 381.52924393 408.02420044 385.88879395 C405.560538 409.61555808 405.560538 409.61555808 404.76953125 433.4453125 C404.76919388 434.49828018 404.76885651 435.55124786 404.76850891 436.63612366 C404.78740927 441.23514078 404.89317499 445.80115792 405.17797852 450.39135742 C405.44008453 456.90502719 405.53040721 461.72896436 400.96582031 466.75537109 C398.02949933 469.60878631 394.86221832 472.08552652 391.62005615 474.57731628 C389.20585967 476.69738973 387.67274409 479.28173026 386 482 C383.84375 483.58203125 383.84375 483.58203125 381.5 484.8125 C377.57537422 486.96971741 374.16639737 489.38455887 370.67578125 492.18359375 C364.13004526 497.13939249 357.22554333 500.73907906 349.81958008 504.24023438 C347.69226023 505.24774553 345.57738573 506.27838777 343.46289062 507.3125 C334.491191 511.64910684 325.53846218 515.07435531 316 518 C314.6528005 518.42295104 313.30588233 518.84679911 311.95922852 519.27148438 C308.49095666 520.36053756 305.01644315 521.42769837 301.53833008 522.48486328 C299.43331071 523.1262765 297.33095966 523.77598373 295.22851562 524.42578125 C282.41371474 528.34904935 269.29098559 531.98120475 255.8125 532.3125 C254.80832031 532.34988281 253.80414062 532.38726563 252.76953125 532.42578125 C249.12854014 531.8660238 248.27685975 530.87915532 246 528 C244.2428355 525.46946507 242.61058717 522.87574514 241 520.25 C240.57460938 519.57195313 240.14921875 518.89390625 239.7109375 518.1953125 C237.61643845 514.8158447 235.67981861 511.43020299 233.9453125 507.8515625 C232.23236579 504.34336534 230.19037617 501.27767087 227.875 498.125 C224.18005812 492.97459176 221.06350936 487.64219808 218.0625 482.0625 C214.62068989 475.67554605 210.86992299 469.79916621 206.54370117 463.98120117 C203.09883518 459.29430403 200.40141383 454.36903545 197.73828125 449.1953125 C195.2801897 444.67684308 192.42500099 440.50038095 189.50390625 436.265625 C188 434 188 434 188 433 C206.98671096 428.81395349 206.98671096 428.81395349 213.359375 432.28515625 C217.4328395 435.64653015 220.00901421 439.43525307 222.6015625 443.9765625 C224.24590595 446.35580805 226.09558388 447.95876468 228.3125 449.8125 C231.818694 452.76233925 234.39516529 455.73052862 237 459.5 C240.18397722 464.09837347 243.60690168 467.49817333 247.87890625 471.07421875 C251.10638519 474.0045081 253.56162938 477.40459861 256 481 C261.03973269 480.75977465 261.03973269 480.75977465 265.0625 478 C265.701875 477.01 266.34125 476.02 267 475 C267.93289187 473.5595052 268.87084647 472.12228261 269.8125 470.6875 C270.57820312 469.51574219 270.57820312 469.51574219 271.359375 468.3203125 C272.9595779 466.0571684 274.67550914 464.0889641 276.5625 462.0625 C283.26043582 454.55315693 285.75651325 447.26478799 285.59936523 437.30444336 C285.60325414 436.28152726 285.60714304 435.25861116 285.61114979 434.20469761 C285.61770542 430.83258348 285.58853081 427.46181545 285.55859375 424.08984375 C285.55513448 421.70267945 285.5536902 419.31551149 285.55413818 416.92834473 C285.54831941 410.57489876 285.51012038 404.22205027 285.4637413 397.86878586 C285.42870275 392.619559 285.41098316 387.37032552 285.39259052 382.12101841 C285.2677349 348.04002575 285.01281515 313.97063401 283.15820312 279.93292236 C282.99541956 276.91508331 282.84246306 273.89686535 282.69140625 270.87841797 C280.33474995 224.31953186 275.92167553 177.960637 269.98294067 131.72764587 C268.92653127 123.49201584 267.95594777 115.24784138 267 107 C266.37014916 99.10232654 266.37014916 99.10232654 262.8125 92.3125 C256.40564185 89.32263286 251.10563034 90.11496957 244.5625 91.8125 C238.82738402 93.20329194 233.26120472 94.29068501 227.375 94.875 C214.60917622 96.29769723 202.08569156 99.85969318 189.80722046 103.5537262 C188.90692801 103.82440698 188.00663555 104.09508776 187.07906151 104.37397099 C186.39297121 104.58056056 185.70688091 104.78715014 185 105 C184.96325759 169.10836812 184.977415 233.21676087 185.18390656 297.32485771 C185.22374009 309.80340813 185.2561425 322.28189071 185.27099609 334.76049805 C185.33978918 389.24632553 185.65046833 443.53190613 189.56750339 497.89144874 C190.07443442 504.9625603 190.52975003 512.03682893 190.9823854 519.11159098 C191.99171898 534.88390268 193.05057088 550.65258385 194.12692082 566.42044562 C194.61737617 573.60800525 195.10204191 580.79595273 195.58677888 587.98389983 C197.70384199 619.44218385 197.70384199 619.44218385 199.92724609 650.89306641 C199.99823359 651.87343841 200.0692211 652.85381041 200.14235973 653.86389065 C200.46222509 658.27319779 200.78534654 662.68221616 201.1153717 667.09077454 C203.79794728 703.37588085 203.79794728 703.37588085 199.46875 708.640625 C198.6540625 709.41921875 197.839375 710.1978125 197 711 C193.03587762 707.54824718 190.93129207 703.59919761 188.5625 699 C188.16345459 698.23743896 187.76440918 697.47487793 187.35327148 696.68920898 C185.21462427 692.54757014 183.26774617 688.40478757 181.5625 684.0625 C179.50301061 678.85320331 176.89339262 674.1046582 174.125 669.25 C170.22872921 662.4118516 166.9446786 655.53913215 163.90869141 648.28417969 C161.93419933 643.72964737 159.63594967 639.37324635 157.28515625 635.00390625 C156.87140747 634.22889771 156.45765869 633.45388916 156.03137207 632.65539551 C155.0236766 630.76878586 154.012233 628.88417899 153 627 C152.99739563 627.87739817 152.99739563 627.87739817 152.99473864 628.77252156 C152.89130695 663.57915664 152.78311203 698.38577367 152.66888306 733.19237501 C152.65511644 737.38842242 152.6413889 741.58446996 152.62768555 745.78051758 C152.62495724 746.61573932 152.62222894 747.45096106 152.61941796 748.31149255 C152.57555821 761.76678411 152.53485158 775.22208341 152.49534739 788.67738838 C152.45462394 802.52359169 152.4104259 816.3697809 152.36312145 830.2159633 C152.33412909 838.73313748 152.30772333 847.25031108 152.28482103 855.76750385 C152.26877153 861.63879412 152.2492931 867.51006733 152.22733159 873.38133842 C152.21482892 876.74914934 152.20414737 880.1169366 152.19658089 883.4847641 C152.15297714 902.34150435 151.7012174 921.15810444 151 940 C141.375882 935.39542071 136.75894198 927.03790482 132.96484375 917.359375 C130.34805808 910.724271 127.20553229 904.88066406 123.44311523 898.8581543 C119.94565224 893.15329396 117.37370085 887.25467832 114.8984375 881.046875 C112.58363791 875.66894495 109.22192287 870.86685204 106 866 C103.71678368 893.66551401 103.71678368 893.66551401 102.65689087 921.39639282 C102.21262629 949.83060121 99.51989046 978.18838187 97.20290375 1006.51894379 C96.99460824 1009.06592912 96.7867548 1011.61295031 96.57891846 1014.15997314 C95.61772797 1025.9280613 94.64391885 1037.69506944 93.66007233 1049.46128464 C93.44234541 1052.0670108 93.22537594 1054.67279921 93.00848389 1057.27859497 C91.73950804 1072.49728462 90.45234069 1087.71246494 88.91479492 1102.90673828 C88.77783974 1104.2605532 88.77783974 1104.2605532 88.63811779 1105.64171791 C88.19886768 1109.96513363 87.75281473 1114.28772005 87.29685974 1118.60940552 C86.3579186 1127.61579339 85.67417358 1136.56679982 85.4375 1145.625 C85.19644776 1153.91846443 84.78855163 1162.0879851 82 1170 C81.34 1170.33 80.68 1170.66 80 1171 C77.82879518 1162.75081293 76.06841441 1154.49703671 74.58984375 1146.09765625 C74.37687149 1144.8992662 74.16389923 1143.70087616 73.94447327 1142.46617126 C73.49775652 1139.94293335 73.0533258 1137.41928974 72.61108398 1134.89526367 C71.94449861 1131.10232284 71.26462307 1127.31192506 70.58398438 1123.52148438 C68.7303452 1113.06161432 66.9154789 1102.68551592 66.12890625 1092.0859375 C65.36660662 1082.22726604 63.61287175 1072.58974749 61.8125 1062.87890625 C61.66111132 1062.06173944 61.50972263 1061.24457264 61.35374641 1060.4026432 C60.0881959 1053.59244471 58.80068628 1046.78642469 57.51062012 1039.98083496 C56.39158748 1034.07394326 55.28150741 1028.16548743 54.1875 1022.25390625 C54.03535538 1021.43240648 53.88321075 1020.61090672 53.72645569 1019.76451302 C52.09770045 1010.90685654 50.61742757 1002.15470647 50.03125 993.15625 C49.35129049 982.84562622 47.48168471 972.79645453 45.59375 962.65234375 C45.3499057 961.34133037 45.3499057 961.34133037 45.10113525 960.00383186 C43.91463524 953.64574592 42.70881204 947.2913753 41.5 940.9375 C40.12381787 933.69876604 38.7553472 926.45867917 37.40625 919.21484375 C37.24338564 918.34158699 37.08052128 917.46833023 36.91272163 916.56861115 C35.08342521 906.70287975 33.49775055 896.97379656 32.80540466 886.95436096 C32.12308939 878.36395984 30.458386 869.9462878 28.84765625 861.4921875 C28.69727779 860.70213129 28.54689934 859.91207508 28.39196396 859.09807777 C27.13738676 852.52788909 25.85953522 845.96225942 24.57928467 839.39703369 C23.46945346 833.70181391 22.36917019 828.00488121 21.28515625 822.3046875 C21.13320423 821.50633799 20.98125221 820.70798847 20.82469559 819.88544655 C18.77575591 809.04122409 17.24361635 798.27232952 16.19020081 787.28096008 C15.21489039 777.72935302 13.54948796 768.36507406 11.75 758.94140625 C11.59985884 758.15405594 11.44971767 757.36670563 11.29502678 756.55549622 C10.05460523 750.07221746 8.78929147 743.59384037 7.52099609 737.1159668 C6.41774764 731.47689092 5.32503584 725.83593281 4.25 720.19140625 C4.10186859 719.41449055 3.95373718 718.63757484 3.80111694 717.83711624 C1.04984924 703.2882723 -0.77169512 688.75870829 -2 674 C1.41984554 675.13994851 1.71888739 675.73796394 3.625 678.625 C5.93530667 681.85828279 8.20911823 684.06508459 11.4375 686.375 C15.7914752 689.55870807 18.25771481 693.09168778 21.17578125 697.57421875 C23.66595888 700.88556845 26.64212205 703.05611732 29.9765625 705.46875 C32.46595567 707.3526151 34.28748701 709.39400197 36 712 C36 712.66 36 713.32 36 714 C36.99 714 37.98 714 39 714 C38.85377197 712.88778076 38.70754395 711.77556152 38.55688477 710.62963867 C38.00349178 706.40531066 37.45981329 702.17977455 36.91870117 697.95385742 C36.68557134 696.14330626 36.44999034 694.33306861 36.21166992 692.52319336 C34.99554178 683.27496311 33.91696576 674.10211235 33.5625 664.77734375 C33.07692394 652.86380796 31.21060317 641.15281483 29.4375 629.375 C29.08218265 626.96734684 28.72729075 624.55963087 28.37280273 622.15185547 C26.58926326 610.12123157 24.71608904 598.10766239 22.7265625 586.109375 C22.54382278 585.00546417 22.36108307 583.90155334 22.17280579 582.76419067 C21.30662502 577.54879266 20.4276543 572.33603747 19.52709961 567.12646484 C19.20676927 565.23276418 18.88653318 563.33904756 18.56640625 561.4453125 C18.42196075 560.63584167 18.27751526 559.82637085 18.12869263 558.99237061 C17.23635156 553.65862745 16.84345263 548.37928976 16.59521484 542.98168945 C16.14105269 533.77662527 14.61505075 524.8920461 12.91015625 515.84765625 C12.60162188 514.16971058 12.29397782 512.49160098 11.98716736 510.81333923 C11.18653581 506.44761417 10.37364584 502.08426301 9.55804443 497.72131348 C8.73195355 493.28897314 7.91849304 488.85431638 7.10351562 484.41992188 C5.90727643 477.92341409 4.70743265 471.42759414 3.49633789 464.93383789 C3.36492433 464.22734635 3.23351076 463.52085482 3.09811497 462.79295444 C2.23977365 458.20393105 1.32310389 453.63078249 0.32420349 449.07029724 C-0.04867636 446.68916272 -0.05373078 444.40628793 0 442 C-21.89042345 441.23222581 -39.89468314 444.84108212 -60.44873047 452.10644531 C-62.96974235 452.98940258 -65.49985877 453.83873505 -68.03515625 454.6796875 C-69.58611235 455.2026067 -71.13690239 455.72601875 -72.6875 456.25 C-73.4005127 456.48380371 -74.11352539 456.71760742 -74.84814453 456.95849609 C-78.4687577 458.20830993 -79.80871867 458.71307801 -82 462 C-82.19227888 465.04627282 -82.26219423 468.00014626 -82.24291992 471.046875 C-82.24478711 471.99939651 -82.2466543 472.95191803 -82.24857807 473.93330383 C-82.25228576 477.20561044 -82.24126193 480.47771102 -82.23046875 483.75 C-82.22973259 486.17504872 -82.2298021 488.60009778 -82.23059082 491.02514648 C-82.22981555 497.15456253 -82.21889073 503.28389074 -82.20333564 509.41328144 C-82.19042614 514.54586394 -82.1811343 519.67844119 -82.17422485 524.81103516 C-82.14910881 543.10721788 -82.10744854 561.40332447 -82.05821764 579.69945717 C-82.01230624 596.87951925 -81.97852864 614.05959075 -81.94883406 631.23968697 C-81.89967523 659.6691963 -81.83738803 688.09864575 -81.75946522 716.52809143 C-81.75112689 719.58139031 -81.74281859 722.63468927 -81.73452759 725.68798828 C-81.73246911 726.44337493 -81.73041063 727.19876158 -81.72828978 727.97703874 C-81.69728412 739.42592794 -81.67393302 750.87481647 -81.65438843 762.32373047 C-81.63176758 775.55370949 -81.5983364 788.78361502 -81.55159938 802.01353168 C-81.52760762 808.88477186 -81.50831847 815.75594613 -81.50233459 822.62722778 C-81.4962601 829.01541325 -81.47620841 835.40340693 -81.44571269 841.79152107 C-81.43701991 844.10633066 -81.43320583 846.42116531 -81.43499506 848.73599052 C-81.44975813 876.68231797 -77.37930784 902.12384963 -65 927.4375 C-64.67999023 928.09999756 -64.35998047 928.76249512 -64.03027344 929.44506836 C-62.37921803 932.73093518 -60.65255796 935.55341367 -58.25 938.34765625 C-56 941 -56 941 -56 943 C-55.22269531 943.35964844 -55.22269531 943.35964844 -54.4296875 943.7265625 C-51.2032771 945.41757502 -48.17659987 947.39243193 -45.125 949.375 C-44.52558594 949.76171875 -43.92617188 950.1484375 -43.30859375 950.546875 C-42.11561354 951.31804225 -40.92656514 952.0953289 -39.74169922 952.87890625 C-38.05620459 953.96382233 -36.31727687 954.96430024 -34.578125 955.9609375 C-32 958 -32 958 -31.4140625 960.578125 C-31.51847656 961.90070313 -31.51847656 961.90070313 -31.625 963.25 C-31.67914062 964.14203125 -31.73328125 965.0340625 -31.7890625 965.953125 C-31.89347656 966.96632813 -31.89347656 966.96632813 -32 968 C-39.43360658 973.02270715 -48.32981416 970.21066634 -56.61303711 968.64257812 C-71.66423657 965.82205812 -86.79041728 964.71575886 -102.03669739 963.60546875 C-108.62935314 963.11932549 -115.21279055 962.55105008 -121.796875 961.9609375 C-160.96338067 958.48217345 -200.19803187 956.31377711 -239.44921875 959.80859375 C-240.25405197 959.8800058 -241.05888519 959.95141785 -241.8881073 960.0249939 C-245.8510408 960.3807212 -249.81101758 960.75479354 -253.76928711 961.15917969 C-255.20296063 961.29754268 -256.63663569 961.43588983 -258.0703125 961.57421875 C-259.33633301 961.70401123 -260.60235352 961.83380371 -261.90673828 961.9675293 C-265 962 -265 962 -268 960 C-269.09765625 957.46875 -269.09765625 957.46875 -270.0625 954.5 C-271.35758486 950.34545933 -271.35758486 950.34545933 -274 947 C-274 946.01 -274 945.02 -274 944 C-272.55053711 942.62133789 -272.55053711 942.62133789 -270.52734375 941.22265625 C-269.79193359 940.70896484 -269.05652344 940.19527344 -268.29882812 939.66601562 C-267.1299707 938.87227539 -267.1299707 938.87227539 -265.9375 938.0625 C-265.18533203 937.53720703 -264.43316406 937.01191406 -263.65820312 936.47070312 C-260.23299585 934.10123074 -256.81316871 931.85120805 -253.15625 929.85546875 C-250.26978175 928.15859695 -248.61591347 926.83143408 -246.5625 924.25 C-244.82473263 922.11359112 -243.21084712 920.17664399 -241.09765625 918.40625 C-225.45341851 905.27128604 -219.62030117 875.91091825 -217.63865662 856.45170593 C-217.31072015 852.39385873 -217.02019863 848.33519053 -216.74609375 844.2734375 C-216.63967168 842.75718243 -216.53281499 841.24095781 -216.42555237 839.72476196 C-216.20248445 836.5530881 -215.98354851 833.38116587 -215.76782227 830.20898438 C-215.49664674 826.22387005 -215.21698774 822.23941201 -214.93426418 818.25510216 C-214.71250413 815.11978254 -214.49465608 811.98419971 -214.27791023 808.84852982 C-214.17642469 807.38426784 -214.0740405 805.92006776 -213.97057915 804.45594406 C-212.39046653 781.97720948 -211.83894697 759.51888322 -211.83203125 736.98828125 C-211.82879853 734.44052616 -211.82543317 731.89277123 -211.82194519 729.34501648 C-211.81600509 724.02452087 -211.81405556 718.7040422 -211.81469727 713.38354492 C-211.81522426 708.05473667 -211.80795959 702.72601258 -211.79418945 697.3972168 C-211.68060069 652.73767999 -212.36166911 608.12153226 -215.6328125 563.56640625 C-216.10936782 556.37305623 -216.07904037 549.20584741 -216 542 C-216.92941406 542.66386719 -217.85882813 543.32773437 -218.81640625 544.01171875 C-226.25390625 549.32421875 -226.25390625 549.32421875 -228.13769531 550.66430664 C-229.35757985 551.53923956 -230.5708036 552.42355259 -231.77636719 553.31811523 C-235.70057689 556.20741081 -239.73297142 558.56764149 -244.125 560.6875 C-244.79660156 561.01637207 -245.46820313 561.34524414 -246.16015625 561.68408203 C-247.63287292 562.40279706 -249.10723128 563.11815551 -250.58300781 563.83056641 C-253.20403809 565.09872146 -255.81660125 566.3835314 -258.4296875 567.66796875 C-260.28602104 568.57121177 -262.14278733 569.473566 -264 570.375 C-264.87156738 570.80385498 -265.74313477 571.23270996 -266.64111328 571.67456055 C-270.98445746 573.76211418 -275.01749129 575.37106042 -279.74853516 576.41357422 C-285.02702631 577.78843171 -290.09534836 579.93755351 -295.1875 581.875 C-307.27668966 586.47066488 -319.2045869 590.94202215 -332.0625 592.75 C-332.87654297 592.87503906 -333.69058594 593.00007812 -334.52929688 593.12890625 C-338.10155429 593.66225395 -341.36891217 594 -345 594 C-344.67 594.66 -344.34 595.32 -344 596 C-343.8821249 598.66684552 -343.82473213 601.30894508 -343.81054688 603.97689819 C-343.80223091 604.81171427 -343.79391495 605.64653035 -343.78534698 606.50664389 C-343.75848606 609.32260458 -343.73866038 612.13857205 -343.71875 614.95458984 C-343.70094944 616.96901323 -343.68270969 618.98343278 -343.6640625 620.99784851 C-343.62466794 625.35481265 -343.58838218 629.71178804 -343.55444336 634.06879807 C-343.50028692 641.01430606 -343.4390924 647.95974137 -343.37695312 654.90518188 C-343.26769634 667.21842937 -343.16446496 679.53172202 -343.0625 691.84503174 C-342.91050992 710.19163749 -342.75343907 728.53819906 -342.59148407 746.88471949 C-342.54095836 752.62861104 -342.49166706 758.37250718 -342.44555664 764.116436 C-342.35129202 775.83691509 -342.24517116 787.55708207 -342.1076889 799.27714264 C-342.04240533 804.89519415 -341.9864972 810.51313607 -341.94482422 816.13141632 C-341.89984796 822.13403725 -341.83537501 828.1361817 -341.75828552 834.1384728 C-341.73224648 836.41838225 -341.71284192 838.69837865 -341.70057678 840.97840381 C-341.68244117 844.14029123 -341.63988999 847.30100029 -341.59179688 850.46255493 C-341.59215439 851.38439268 -341.5925119 852.30623044 -341.59288025 853.25600266 C-341.42743398 861.25223077 -338.7869761 867.4260478 -335.25 874.5 C-334 877 -334 877 -334 879 C-333.32195312 879.21011719 -332.64390625 879.42023437 -331.9453125 879.63671875 C-328.03644588 881.44599521 -325.13966973 884.03759336 -321.875 886.8125 C-316.56325508 891.21685177 -311.57070313 894.62744184 -305.07421875 897.1328125 C-303 898 -303 898 -301 900 C-300.72655579 903.33601937 -300.91426249 906.65623717 -301 910 C-305.8742794 909.07126082 -310.72144627 908.10655624 -315.5234375 906.8515625 C-327.44728868 903.79410123 -339.34552429 902.06537636 -351.5625 900.75 C-352.32995544 900.66727844 -353.09741089 900.58455688 -353.88812256 900.49932861 C-358.28295532 900.03163824 -362.67977062 899.59233967 -367.0802002 899.18066406 C-368.75883584 899.02269492 -370.4366306 898.85584139 -372.11425781 898.6875 C-383.58251408 897.65013196 -395.11884697 897.68009924 -406.625 897.5 C-419.45772961 897.29450732 -432.28123611 897.05658158 -445.10546875 896.53515625 C-465.20434449 895.73114087 -485.31888571 895.41413656 -505.42877197 895.00421143 C-510.92064707 894.89178387 -516.41246922 894.77682653 -521.90429688 894.66210938 C-532.60281544 894.43899048 -543.30138791 894.21858494 -554 894 C-554 889.38 -554 884.76 -554 880 C-552.081875 879.319375 -550.16375 878.63875 -548.1875 877.9375 C-541.49852761 875.35591823 -535.87644237 872.06581913 -530 868 C-528.85610983 867.22951612 -527.71154824 866.46002835 -526.56640625 865.69140625 C-520.35559469 861.58787093 -520.35559469 861.58787093 -514.74609375 856.73046875 C-513 855 -513 855 -511 855 C-510.58814453 854.11248047 -510.58814453 854.11248047 -510.16796875 853.20703125 C-509.04940704 851.09336113 -507.84383006 849.5125098 -506.3125 847.6875 C-503.37046178 843.84188739 -501.28780373 839.80468254 -499.25 835.4375 C-498.95649658 834.81254639 -498.66299316 834.18759277 -498.3605957 833.54370117 C-495.1483333 826.47226885 -493.66939784 819.71878785 -492.9375 812.0625 C-492.85951172 811.32193359 -492.78152344 810.58136719 -492.70117188 809.81835938 C-491.39156938 796.81974288 -490.83242895 783.75131855 -490.44360352 770.69750977 C-490.42259366 769.99954131 -490.40158381 769.30157286 -490.37993729 768.58245385 C-489.90421944 752.44579568 -489.86817267 736.31473719 -489.89860606 720.17235255 C-489.90502171 716.16866036 -489.90545733 712.16496668 -489.90663147 708.16127014 C-489.90969275 700.64001043 -489.91783294 693.11876591 -489.92798096 685.59751278 C-489.93930759 677.00924678 -489.94469346 668.4209799 -489.94967639 659.83270824 C-489.9600224 642.22179682 -489.97751659 624.61090004 -490 607 C-490.94004883 606.69263412 -491.88009766 606.38526825 -492.84863281 606.06858826 C-495.63573617 605.1235172 -498.13063961 604.05019073 -500.75 602.72265625 C-501.6059375 602.29146484 -502.461875 601.86027344 -503.34375 601.41601562 C-504.65859375 600.74602539 -504.65859375 600.74602539 -506 600.0625 C-506.8765625 599.61970703 -507.753125 599.17691406 -508.65625 598.72070312 C-509.5121875 598.28822266 -510.368125 597.85574219 -511.25 597.41015625 C-512.49716797 596.78004639 -512.49716797 596.78004639 -513.76953125 596.13720703 C-515.50155214 595.25413421 -517.22201158 594.34836883 -518.9375 593.43359375 C-521.66995995 592.15449579 -524.33956359 591.16924362 -527.1875 590.1875 C-534.1582523 587.70670453 -540.35197227 584.09347046 -546.75 580.421875 C-552.20525279 577.35329531 -557.53281713 575.00749724 -563.44628906 572.97021484 C-567.23346841 571.53137634 -570.5031818 569.53438669 -573.875 567.3125 C-574.54990479 566.87679687 -575.22480957 566.44109375 -575.92016602 565.9921875 C-577.29408244 565.10026481 -578.66435983 564.20270906 -580.03076172 563.29931641 C-581.87584824 562.08191615 -583.7348125 560.88918201 -585.59765625 559.69921875 C-592.88559043 554.90026326 -598.54605016 549.79384755 -604 543 C-604.67724121 542.16082031 -604.67724121 542.16082031 -605.36816406 541.3046875 C-618.8613609 524.5357381 -618.8613609 524.5357381 -622.734375 516.359375 C-624.28226886 513.47379509 -626.13723489 510.88113875 -628 508.1875 C-632.71659313 501.18422667 -636.10657075 493.57806911 -639.5 485.875 C-640.02851562 484.67641357 -640.55703125 483.47782715 -641.1015625 482.24291992 C-645.17767247 472.85092765 -645.17767247 472.85092765 -646 469 C-643.82070619 467.75424765 -641.63293424 466.52927301 -639.4375 465.3125 C-638.84775391 464.97283203 -638.25800781 464.63316406 -637.65039062 464.28320312 C-625.58833714 457.66453788 -612.19991115 454.95446086 -598.8125 452.5 C-597.24125088 452.20508068 -595.67012619 451.9094977 -594.09912109 451.61328125 C-590.93103104 451.01817041 -587.76175528 450.4300771 -584.59130859 449.84765625 C-580.94138474 449.17644997 -577.29523012 448.48733719 -573.65037537 447.78918457 C-570.47701198 447.18335955 -567.3009133 446.59228842 -564.125 446 C-562.4076062 445.67032227 -562.4076062 445.67032227 -560.65551758 445.33398438 C-559.5961499 445.14126953 -558.53678223 444.94855469 -557.4453125 444.75 C-556.53281738 444.57984375 -555.62032227 444.4096875 -554.68017578 444.234375 C-551.61821029 443.9666134 -549.0005215 444.38303946 -546 445 C-545.51099106 451.35711624 -545.51099106 451.35711624 -547.46484375 453.92578125 C-550.9776769 456.79991747 -554.81258291 458.81569183 -558.8125 460.9375 C-565.34733334 464.40694364 -565.34733334 464.40694364 -571.44921875 468.56640625 C-574.12279146 470.55381348 -576.70776343 471.76698447 -579.82421875 472.94140625 C-585.2573379 474.99103837 -589.94612959 477.79651475 -594.8125 480.9375 C-595.63169922 481.44990234 -596.45089844 481.96230469 -597.29492188 482.49023438 C-601.71477099 485.3067698 -605.47415001 488.11655873 -609 492 C-602.64561047 498.85342535 -596.92996925 504.56883585 -588.4296875 508.72265625 C-586.17021324 509.91051491 -584.64283266 511.06277785 -582.8125 512.8125 C-578.23390615 517.00863374 -572.66899759 519.67272865 -567.2578125 522.63671875 C-563.22330034 524.85176299 -559.29769635 527.21918938 -555.375 529.625 C-548.4409993 533.84411538 -541.30964775 537.46528771 -534 541 C-532.01886185 541.97517163 -530.03962763 542.95422262 -528.0625 543.9375 C-526.61810547 544.65486328 -526.61810547 544.65486328 -525.14453125 545.38671875 C-522.80593826 546.58651863 -520.49990829 547.81334062 -518.19921875 549.08203125 C-517.5436499 549.44111572 -516.88808105 549.8002002 -516.21264648 550.17016602 C-514.94599708 550.86706741 -513.68343119 551.5714677 -512.42602539 552.28491211 C-506.12066903 555.74841771 -500.24981389 557.12592729 -493 557 C-492.35778 515.73809288 -493.28635078 474.55107494 -494.6875 433.3125 C-494.73060932 432.04092293 -494.77371864 430.76934586 -494.81813431 429.45923615 C-495.86581979 398.67202091 -497.02864488 367.889646 -498.25860763 337.10922933 C-498.37215797 334.26499281 -498.48525329 331.42073827 -498.59837049 328.5764845 C-498.73886739 325.04536257 -498.87973011 321.5142553 -499.02075195 317.9831543 C-499.04849028 317.28851951 -499.07622861 316.59388473 -499.1048075 315.87820041 C-499.45249339 307.18190443 -499.8100175 298.4860928 -500.17714024 289.79059124 C-500.44046776 283.52599852 -500.69623763 277.26111199 -500.94921875 270.99609375 C-501.02327973 269.17897731 -501.02327973 269.17897731 -501.0988369 267.32515144 C-501.68719388 252.65637144 -502.08590129 237.99569735 -502.26025391 223.31689453 C-502.26940736 222.58012281 -502.27856081 221.84335109 -502.28799164 221.08425295 C-502.37717523 213.89073166 -502.45671649 206.69754794 -502.487988 199.50351954 C-502.50512109 196.25364603 -502.5393637 193.00392479 -502.56958008 189.75415039 C-502.56861391 188.59272837 -502.56764774 187.43130634 -502.5666523 186.23468971 C-502.67150069 177.05837174 -504.36041415 169.91055041 -509.4375 162.1875 C-510.01371094 161.29417969 -510.58992187 160.40085938 -511.18359375 159.48046875 C-512.94365122 156.93994586 -512.94365122 156.93994586 -515.22265625 154.80078125 C-517 153 -517 153 -517 151 C-517.55945313 150.74605469 -518.11890625 150.49210938 -518.6953125 150.23046875 C-521.32468224 148.8266527 -523.51733179 147.13628893 -525.875 145.3125 C-532.18599027 140.64117161 -538.91611674 137.30925933 -546 134 C-544.6359029 129.53568223 -542.94392417 127.49562584 -539 125 C-536.13595358 124.64652369 -533.67414344 124.52200851 -530.8203125 124.59350586 C-530.00148055 124.59767265 -529.1826486 124.60183945 -528.33900356 124.60613251 C-526.54862336 124.61791147 -524.75828629 124.63905579 -522.96810722 124.66836357 C-520.06107872 124.71588876 -517.15468497 124.73922966 -514.24732971 124.7568512 C-510.03698183 124.7848452 -505.82691417 124.82317522 -501.61672974 124.86962891 C-490.39973222 124.99015653 -479.18240816 125.03136847 -467.96484375 125.05859375 C-466.23892156 125.063305 -466.23892156 125.063305 -464.47813225 125.06811142 C-435.23184348 125.13107087 -406.03282553 124.15180709 -376.81054688 123.06616211 C-375.87207129 123.03151635 -374.93359571 122.99687059 -373.96668148 122.96117496 C-369.61636121 122.80007513 -365.26632788 122.63483328 -360.91664124 122.45741272 C-349.60670752 122.01003708 -338.31817197 121.92968202 -327 122 C-327.33 126.29 -327.66 130.58 -328 135 C-329.98 135.66 -331.96 136.32 -334 137 C-335.17617174 138.80968065 -335.17617174 138.80968065 -336 141 C-337.4277496 142.77504005 -338.8896614 144.52286209 -340.375 146.25 C-347.26698359 154.54918924 -350.15264301 161.28358882 -350.14044189 172.0443573 C-350.14341302 172.8629434 -350.14638414 173.6815295 -350.1494453 174.52492124 C-350.15813306 177.27598319 -350.1596411 180.02700158 -350.16113281 182.77807617 C-350.16576384 184.75246269 -350.17078889 186.72684832 -350.17617798 188.70123291 C-350.189345 194.09729533 -350.19576441 199.49334523 -350.20018864 204.88942122 C-350.20313451 208.30398643 -350.20724375 211.7185484 -350.21169281 215.13311195 C-350.22542678 225.93427266 -350.23504414 236.73542574 -350.2388947 247.53659457 C-350.24285439 258.57367084 -350.25471963 269.6106587 -350.28125 280.64770508 C-350.42313958 340.96406841 -349.79426135 401.14767767 -347.27371013 461.4151594 C-346.95745714 468.9782902 -346.66210701 476.54217229 -346.36816406 484.10620117 C-346.20944016 510.22105832 -346.20944016 510.22105832 -343 536 C-332.97315056 532.69479448 -323.55918334 528.59182252 -314.07397461 523.97631836 C-311.93054261 522.96730311 -309.75993424 522.04769823 -307.578125 521.125 C-302.5810903 518.9214521 -298.11777345 516.05575188 -293.5625 513.0625 C-288.77261574 509.92321065 -284.04506347 506.95493857 -278.87890625 504.46875 C-274.29554515 502.24101815 -270.38298234 499.56494077 -266.375 496.4375 C-262.75869048 493.6286784 -259.30579277 491.05358374 -255.14453125 489.109375 C-250.04479826 486.67726104 -245.76333708 483.25886801 -241.3125 479.8125 C-239.66478877 478.54553479 -238.01501185 477.28125196 -236.36328125 476.01953125 C-235.56582993 475.39539715 -234.7683786 474.77126305 -233.94676208 474.12821579 C-231 472 -231 472 -227.68605042 470.17186356 C-220.82840873 466.29881533 -220.82840873 466.29881533 -216.81324768 459.73053741 C-216.37878687 455.73297491 -216.35388554 451.84354172 -216.4765625 447.83496094 C-216.47531567 446.31012539 -216.46836855 444.78528561 -216.45620728 443.26049805 C-216.43967687 439.1182905 -216.50385534 434.98083966 -216.58308411 430.83950329 C-216.65406897 426.42770019 -216.65207606 422.01586075 -216.65917969 417.60357666 C-216.68131334 410.13107001 -216.75119592 402.66028411 -216.85449219 395.18847656 C-216.99638815 384.91800969 -217.05272807 374.64853408 -217.09055233 364.37723398 C-217.27313832 318.86541029 -218.54184229 273.44477417 -221 228 C-221.08683044 226.38757164 -221.08683044 226.38757164 -221.17541504 224.74256897 C-221.82139236 212.83221481 -222.55083006 200.92888745 -223.34893799 189.02783203 C-223.55641034 185.89940043 -223.75483627 182.77041542 -223.95368958 179.64142609 C-224.53570798 170.50112745 -225.16578415 161.36511809 -225.83752441 152.23098755 C-226.00266434 149.96341539 -226.16232088 147.69550271 -226.32128906 145.42749023 C-226.58602939 141.68390409 -226.87324764 137.9426058 -227.17604065 134.20191193 C-227.33677483 132.16645503 -227.47928874 130.12958408 -227.62097168 128.0927124 C-228.36399576 119.33749167 -229.52268827 107.30859246 -236.2076416 100.87554932 C-238.4059147 99.35359651 -240.58646704 98.14673864 -243 97 C-248.71677302 94.16958205 -251.46263166 91.88669454 -254 86 C-254.3125 82.625 -254.3125 82.625 -254 80 C-253.67 79.67 -253.34 79.34 -253 79 C-251.35074076 79.06585064 -249.70425478 79.2046075 -248.0625 79.375 C-247.16660156 79.46523437 -246.27070313 79.55546875 -245.34765625 79.6484375 C-243.5888667 79.83314119 -241.83022041 80.02143247 -240.07568359 80.24291992 C-230.92032512 81.31161158 -221.70599256 81.36781164 -212.5 81.5625 C-211.55015228 81.58334656 -210.60030457 81.60419312 -209.62167358 81.62567139 C-141.71211436 83.10403806 -141.71211436 83.10403806 -73.96679688 79.01635742 C-53.57787582 76.94808279 -53.57787582 76.94808279 -49 80 C-50.48260493 83.46461362 -52.46955207 85.6038045 -55.125 88.25 C-60.43396726 94.0746472 -63.58520514 100.45970093 -66.84765625 107.52783203 C-68.16060692 110.34455629 -69.51543395 113.13907889 -70.875 115.93359375 C-71.87551915 117.9971442 -72.87552172 120.0609452 -73.875 122.125 C-74.35179199 123.10879639 -74.82858398 124.09259277 -75.31982422 125.10620117 C-75.99295654 126.51156128 -75.99295654 126.51156128 -76.6796875 127.9453125 C-77.07913574 128.77562988 -77.47858398 129.60594727 -77.89013672 130.46142578 C-80.06695106 135.44042172 -81.28041554 140.03779704 -81.81640625 145.4453125 C-81.94080078 146.68925781 -82.06519531 147.93320313 -82.19335938 149.21484375 C-82.31517578 150.50519531 -82.43699219 151.79554688 -82.5625 153.125 C-82.68818359 154.36121094 -82.81386719 155.59742188 -82.94335938 156.87109375 C-85.08168154 178.79169476 -85.15126229 200.67574384 -85.1343255 222.67534852 C-85.13174215 227.10474848 -85.13415744 231.53414668 -85.13571167 235.96354675 C-85.13752445 243.44176609 -85.13515911 250.91997553 -85.13037109 258.39819336 C-85.12560171 265.93075208 -85.12548927 273.46329096 -85.13037109 280.99584961 C-85.15950581 327.00746499 -84.94259688 372.99700567 -84 419 C-83.0434552 418.75932297 -82.0869104 418.51864594 -81.10137939 418.27067566 C-64.31689059 414.05514363 -47.65759648 410.34274236 -30.5 408 C-29.7419104 407.89458893 -28.9838208 407.78917786 -28.20275879 407.68057251 C-11.50638647 405.38776082 3.48419058 404.62806461 18.50390625 413.609375 C20.80021266 414.88869438 22.72541993 415.5918227 25.25 416.25 C31.29435679 418.05021457 36.23199153 421.96507736 41.3515625 425.52734375 C44.7900808 427.90906973 48.34189228 429.97346475 52 432 C51.70899074 427.74995474 51.41704949 423.49997389 51.125 419.25 C51.04636719 418.10144531 50.96773437 416.95289063 50.88671875 415.76953125 C50.75590564 413.86770989 50.62481839 411.96590382 50.48936462 410.06440735 C50.17802461 405.67859693 49.89634829 401.29216897 49.63500977 396.90307617 C48.53029095 379.12320952 46.43332981 361.57347137 43.98205566 343.94226074 C43.59125162 341.11658393 43.20889685 338.28979395 42.82684135 335.46292305 C41.19173237 323.37339499 39.53883418 311.2891387 37.62744141 299.23974609 C37.45665117 298.15318301 37.45665117 298.15318301 37.28241062 297.04466915 C36.74366597 293.61775707 36.19587741 290.19335884 35.62736511 286.77119446 C34.50177547 279.67381297 33.84141658 272.77668508 33.58081055 265.60473633 C33.15648334 254.65778931 31.61258061 243.94590286 29.96170044 233.12515259 C29.42276509 229.59086998 28.89637233 226.05490028 28.37280273 222.51831055 C27.25918863 215.01059504 26.13077396 207.50514756 25 200 C23.68734409 191.28766965 22.38115057 182.57446703 21.09085083 173.85879517 C20.57742666 170.41268786 20.05258103 166.9684558 19.52709961 163.52416992 C17.97393593 153.15975624 16.76648191 142.97072077 16.40189362 132.49606323 C15.97324617 121.87854597 14.24561749 111.43132915 12.65625 100.9375 C12.32283029 98.68568599 11.9903708 96.43372961 11.65881348 94.18164062 C10.79273562 88.31295777 9.91601355 82.44592124 9.03619385 76.57928467 C7.6260374 67.16598875 6.23108974 57.75043623 4.83866882 48.33450317 C4.35452407 45.07259002 3.86496572 41.81152517 3.37463379 38.55053711 C1.45279571 25.68521676 -0.25962486 13.03893717 0 0 Z " fill="#020202" transform="translate(660,14)"/>
</svg>
