<svg xmlns="http://www.w3.org/2000/svg" width="626" height="626" viewBox="0 0 626 626" version="1.1"><path d="M 302.250 120.757 C 292.012 121.070, 288.214 122.611, 296.250 123.193 L 300.500 123.500 300.500 129.436 C 300.500 135.295, 300.457 135.384, 297.250 136.215 C 292.721 137.389, 293.193 138.561, 298.750 139.946 C 307.782 142.198, 307.816 142.261, 306.351 154.151 C 304.487 169.274, 304.535 170, 307.406 170 C 310.136 170, 310.313 169.205, 311.936 149.665 C 312.431 143.706, 313.039 138.628, 313.287 138.380 C 313.535 138.132, 314.039 142.558, 314.407 148.215 C 315.699 168.050, 316.042 170, 318.238 170 C 319.805 170, 320.096 169.520, 319.638 167.693 C 319.320 166.425, 318.758 160.424, 318.389 154.358 L 317.719 143.329 321.685 141.743 C 323.865 140.870, 327.323 139.842, 329.368 139.459 C 333.795 138.628, 333.678 136.632, 329.176 136.187 C 326.783 135.950, 325.857 135.277, 325.395 133.439 C 325.059 132.100, 325.035 130.352, 325.341 129.553 C 325.931 128.015, 324.919 127.535, 318.807 126.453 C 315.796 125.919, 315.057 125.324, 314.807 123.226 C 314.447 120.207, 315.227 120.361, 302.250 120.757 M 303 124.975 C 303 126.652, 303.491 126.865, 306.250 126.388 C 311.057 125.558, 312 125.171, 312 124.031 C 312 123.464, 309.975 123, 307.500 123 C 303.686 123, 303 123.301, 303 124.975 M 304.122 128.904 C 303.364 129.384, 303.016 130.217, 303.349 130.755 C 304.045 131.882, 312 130.078, 312 128.793 C 312 127.724, 305.849 127.810, 304.122 128.904 M 315 128.832 C 315 129.962, 322.082 132.067, 323.316 131.304 C 324.862 130.349, 320.946 128, 317.809 128 C 316.264 128, 315 128.374, 315 128.832 M 305 133.237 L 302.500 134.347 304.852 134.756 C 307.862 135.280, 312 134.253, 312 132.981 C 312 131.695, 308.157 131.835, 305 133.237 M 314 132.747 C 314 133.767, 318.557 135, 322.325 135 C 325.792 135, 322.889 133.165, 318.250 132.423 C 315.624 132.004, 314 132.128, 314 132.747 M 259.455 159.455 C 257.839 161.070, 257.001 163.035, 257.004 165.205 C 257.009 169.499, 260.367 175, 262.985 175 C 264.226 175, 265.012 175.672, 265.030 176.750 C 265.058 178.340, 265.148 178.350, 266.018 176.862 C 266.544 175.961, 267.997 174.967, 269.247 174.653 C 271.832 174.004, 275 169.255, 275 166.030 C 275 163.414, 273.245 159.939, 271.087 158.282 C 268.269 156.118, 262.176 156.733, 259.455 159.455 M 356.315 158.007 C 351.754 159.845, 350.663 166.294, 353.989 171.750 C 355.169 173.686, 356.785 175, 357.985 175 C 359.109 175, 360 175.663, 360 176.500 C 360 177.325, 360.450 178, 361 178 C 361.550 178, 362 177.325, 362 176.500 C 362 175.675, 362.867 175, 363.927 175 C 366.900 175, 370 170.313, 370 165.817 C 370 158.924, 363.396 155.154, 356.315 158.007 M 261.965 160.542 C 260.049 162.851, 262.232 164.625, 264.364 162.493 C 265.264 161.593, 266 160.439, 266 159.929 C 266 158.452, 263.368 158.852, 261.965 160.542 M 356.965 160.542 C 355.049 162.851, 357.232 164.625, 359.364 162.493 C 360.264 161.593, 361 160.439, 361 159.929 C 361 158.452, 358.368 158.852, 356.965 160.542 M 292.713 165.621 C 292.321 166.013, 292 167.383, 292 168.667 C 292 171.191, 293.815 171.587, 299.850 170.380 C 302.304 169.889, 302.884 169.315, 302.631 167.630 C 302.367 165.880, 301.518 165.447, 297.868 165.204 C 295.425 165.041, 293.105 165.229, 292.713 165.621 M 322.713 165.621 C 322.321 166.013, 322 167.102, 322 168.042 C 322 169.771, 325.612 171, 330.691 171 C 332.765 171, 333.085 170.585, 332.816 168.250 C 332.529 165.753, 332.083 165.473, 327.963 165.204 C 325.467 165.041, 323.105 165.229, 322.713 165.621 M 238.465 169.930 C 233.813 171.865, 232.239 176.594, 234.594 181.557 C 236.511 185.597, 239.244 187.058, 243.397 186.264 C 246.478 185.675, 249.990 180.907, 249.996 177.306 C 250.005 172.442, 243.078 168.012, 238.465 169.930 M 380.357 169.970 C 377.711 171.065, 375 174.801, 375 177.354 C 375 180.307, 378.949 186, 380.998 186 C 382.008 186, 383.019 186.558, 383.247 187.241 C 383.544 188.133, 384.150 187.993, 385.402 186.741 C 386.359 185.783, 387.549 185, 388.046 185 C 389.277 185, 392 179.563, 392 177.105 C 392 172.362, 384.978 168.059, 380.357 169.970 M 261.241 171.242 C 261.741 172.763, 269 173.558, 269 172.092 C 269 171.526, 268.403 171.292, 267.672 171.572 C 266.942 171.852, 265.104 171.610, 263.586 171.033 C 261.456 170.223, 260.922 170.270, 261.241 171.242 M 356 170.858 C 356 172.783, 363.324 173.903, 364.411 172.144 C 364.702 171.674, 363.879 171.492, 362.582 171.740 C 361.285 171.987, 359.274 171.682, 358.112 171.060 C 356.950 170.438, 356 170.347, 356 170.858 M 237.980 172.524 C 237.284 173.362, 237.026 174.359, 237.405 174.739 C 238.240 175.573, 241.226 173.823, 241.774 172.179 C 242.344 170.469, 239.468 170.731, 237.980 172.524 M 380.104 171.914 C 378.680 172.816, 379.229 176, 380.808 176 C 381.287 176, 382.192 174.875, 382.818 173.500 C 384.044 170.809, 382.903 170.142, 380.104 171.914 M 293 176.058 C 276.486 177.572, 259.053 182.220, 244.267 189.052 C 236.829 192.488, 236.092 193.076, 236.807 195.006 C 237.763 197.593, 237.079 197.614, 250 194.607 C 273.140 189.224, 280.504 188.497, 311.500 188.541 C 342.687 188.585, 353.269 189.700, 376.496 195.392 C 381.994 196.739, 386.551 197.764, 386.622 197.671 C 386.693 197.577, 387.067 196.474, 387.453 195.220 C 388.086 193.159, 387.446 192.614, 380.761 189.525 C 355.218 177.723, 325.154 173.110, 293 176.058 M 378 180.777 C 378 183.567, 385.070 185.313, 386.566 182.893 C 387.029 182.144, 386.547 182.009, 385.076 182.476 C 383.727 182.904, 381.972 182.557, 380.451 181.560 C 379.103 180.677, 378 180.324, 378 180.777 M 237.441 182.418 C 239.404 184.018, 245 184.633, 245 183.250 C 245 182.838, 243.762 182.468, 242.250 182.428 C 240.738 182.389, 238.600 182.015, 237.500 181.597 C 235.529 180.848, 235.528 180.860, 237.441 182.418 M 293.105 194.105 C 270.848 195.705, 246.917 200.318, 229.075 206.449 C 222.124 208.837, 220.425 209, 202.461 209 L 183.273 209 184.828 215.500 L 186.383 222 203.992 222 C 213.676 222, 222.027 221.592, 222.550 221.094 C 224.020 219.691, 235.697 216.349, 248.704 213.608 C 263.828 210.421, 280.908 208.294, 298.250 207.438 L 312 206.759 312 199.879 L 312 193 308.250 193.143 C 306.188 193.221, 299.372 193.654, 293.105 194.105 M 315.011 196.384 C 315.017 198.098, 315.295 201.149, 315.628 203.165 L 316.234 206.831 325.867 207.439 C 349.821 208.951, 372.691 212.820, 391.659 218.569 C 402.738 221.927, 403.356 222, 420.870 222 L 438.763 222 439.927 217.250 C 440.567 214.637, 441.320 211.730, 441.600 210.789 C 442.068 209.221, 440.373 209.047, 421.305 208.710 C 400.634 208.345, 400.424 208.319, 388.683 204.677 C 369.353 198.680, 348.657 195.259, 322.250 193.696 L 315 193.267 315.011 196.384 M 292.500 214.655 C 269.217 216.512, 252.079 219.266, 234.307 224.009 C 223.833 226.805, 221.904 227.002, 204.800 227.030 C 194.139 227.048, 187.126 227.418, 188 227.916 C 189.209 228.606, 212.712 234, 214.509 234 C 214.779 234, 215 234.613, 215 235.362 C 215 236.410, 217.176 236.078, 224.427 233.922 C 235.081 230.754, 254.564 226.665, 266.500 225.091 C 274.871 223.987, 300.798 222.027, 307.250 222.010 C 310.957 222, 311 221.954, 311 218 L 311 214 303.750 214.168 C 299.762 214.261, 294.700 214.480, 292.500 214.655 M 316 217.782 L 316 221.761 326.750 222.432 C 357.628 224.358, 383.606 228.656, 405.250 235.420 C 409.350 236.701, 410 236.708, 410 235.471 C 410 234.683, 411.012 233.825, 412.250 233.565 C 413.488 233.305, 419.450 232.110, 425.500 230.909 C 431.550 229.708, 436.928 228.337, 437.450 227.863 C 437.986 227.376, 430.139 226.994, 419.450 226.987 C 403.545 226.976, 399.511 226.664, 394.343 225.044 C 378.454 220.062, 351.855 215.839, 327.750 214.470 L 316 213.803 316 217.782 M 283 232.115 C 259.162 234.015, 233.700 238.537, 215.750 244.059 L 206 247.058 206 251.596 C 206 255.448, 206.265 256.057, 207.750 255.620 C 228.557 249.500, 263.655 244.472, 293.391 243.350 L 311 242.686 311 236.843 L 311 231 302.250 231.139 C 297.438 231.216, 288.775 231.655, 283 232.115 M 316 236.724 L 316 242.705 332.250 243.406 C 352.962 244.299, 375.914 247.164, 397.500 251.550 C 406.850 253.450, 415.512 255.281, 416.750 255.619 C 418.843 256.190, 419 255.917, 419 251.698 L 419 247.163 412.750 245.109 C 390.862 237.918, 360.913 233.004, 329.250 231.410 L 316 230.743 316 236.724 M 251.797 256.034 C 232.599 258.356, 212.878 262.217, 197.708 266.624 C 190.993 268.575, 185.317 270.353, 185.094 270.575 C 184.559 271.107, 188.127 279, 188.902 278.999 C 189.231 278.998, 194.962 276.779, 201.638 274.068 C 220.964 266.220, 240.310 260.531, 261.500 256.466 C 275.722 253.737, 272.113 253.577, 251.797 256.034 M 363 256.482 C 386.837 261.302, 409.777 268.128, 427.197 275.584 C 431.586 277.463, 435.519 279, 435.937 279 C 436.794 279, 440.536 271.149, 439.906 270.671 C 438.816 269.842, 420.251 264.697, 410.500 262.521 C 397.230 259.559, 384.961 257.582, 367.155 255.534 C 349.764 253.535, 349.136 253.678, 363 256.482 M 297.500 256.034 C 258.705 258.479, 214.877 271.067, 176.679 290.734 C 167.850 295.280, 144.665 310.116, 143.536 311.941 C 143.207 312.474, 154.383 332.618, 168.373 356.705 C 182.363 380.792, 198.514 408.600, 204.265 418.500 L 214.721 436.500 223.610 441.007 C 237.670 448.134, 254.472 453.075, 276.211 456.473 C 296.204 459.598, 307.301 468.293, 311.315 483.978 L 312.704 489.407 314.493 483.953 C 319.932 467.376, 330.561 459.560, 353.355 455.377 C 374.374 451.519, 391.701 445.982, 405.185 438.813 L 410.869 435.791 428.116 405.646 C 437.601 389.065, 453.595 361.378, 463.658 344.117 C 473.720 326.856, 481.678 312.287, 481.341 311.742 C 481.004 311.197, 475.277 307.177, 468.614 302.809 C 420.336 271.159, 352.360 252.577, 297.500 256.034 M 296.137 274.180 C 285.909 275.462, 264.441 281.024, 252.500 285.486 C 228.526 294.446, 206.563 305.850, 183 321.577 C 163.944 334.296, 163.039 335.569, 178.500 327.909 C 193.718 320.370, 212.133 312.838, 228.297 307.543 C 242.694 302.828, 265.932 296.760, 267.416 297.329 C 268.803 297.862, 275.056 308.117, 280.015 317.995 C 292.607 343.074, 302.699 379.677, 307.450 417.500 C 309.563 434.325, 312 464.615, 312 474.060 C 312 478.687, 312.417 482, 313 482 C 313.550 482, 314 479.541, 314 476.536 C 314 473.531, 314.445 466.668, 314.988 461.286 C 315.531 455.904, 316.676 444.525, 317.531 436 C 321.628 395.169, 329.859 360.530, 342.481 331 C 346.635 321.283, 353.930 307.447, 358.121 301.336 L 360.978 297.172 367.239 298.614 C 389.288 303.691, 420.481 315.121, 444.250 326.832 C 451.812 330.559, 457.997 333.358, 457.992 333.054 C 457.983 332.389, 429.990 313.722, 421.500 308.719 C 412.794 303.589, 390.359 292.524, 381.303 288.893 C 348.644 275.801, 321.135 271.049, 296.137 274.180 M 262.750 331.305 C 260.137 331.872, 258 332.613, 258 332.952 C 258 333.291, 260.363 335.885, 263.250 338.717 L 268.500 343.865 273.864 342.638 L 279.228 341.410 274.013 335.705 C 271.146 332.567, 268.507 330.062, 268.150 330.138 C 267.792 330.213, 265.363 330.739, 262.750 331.305 M 354.963 336.537 L 349.725 341.841 355.073 343.429 L 360.420 345.017 365.685 339.817 C 368.581 336.957, 370.783 334.450, 370.579 334.245 C 370.374 334.041, 367.955 333.280, 365.204 332.554 L 360.201 331.234 354.963 336.537 M 240.250 336.119 C 238.463 336.635, 237 337.399, 237 337.816 C 237 338.234, 239.209 340.751, 241.908 343.409 L 246.816 348.244 251.908 347.022 C 254.709 346.350, 257 345.491, 257 345.113 C 257 344.734, 254.847 342.304, 252.216 339.712 C 247.324 334.894, 245.936 334.477, 240.250 336.119 M 375.536 341.964 C 372.121 345.431, 371.077 347.066, 372.073 347.388 C 381.781 350.521, 380.755 350.666, 386.103 345.399 C 388.796 342.746, 391 340.314, 391 339.995 C 391 339.459, 382.953 337, 381.198 337 C 380.773 337, 378.225 339.234, 375.536 341.964 M 224.500 339.491 C 223.950 339.675, 222.191 340.116, 220.592 340.471 L 217.684 341.117 223.092 346.601 C 228.288 351.869, 228.657 352.058, 232.500 351.429 C 239.171 350.338, 239.260 349.897, 233.953 344.245 C 229.497 339.499, 227.495 338.492, 224.500 339.491 M 395.536 346.964 C 392.136 350.415, 391.082 352.064, 392.073 352.376 C 392.858 352.622, 394.930 353.279, 396.677 353.835 C 399.632 354.775, 400.239 354.519, 405.362 350.173 C 408.391 347.603, 410.899 345.216, 410.935 344.869 C 410.994 344.293, 403.267 342, 401.270 342 C 400.805 342, 398.225 344.234, 395.536 346.964 M 192.500 345.878 C 188.925 346.643, 189.045 347.085, 194.508 353.331 C 198.697 358.119, 198.776 358.156, 203.367 357.468 C 205.915 357.086, 208 356.471, 208 356.102 C 208 354.985, 197.508 344.991, 196.469 345.118 C 195.936 345.183, 194.150 345.525, 192.500 345.878 M 425.509 353.333 C 420.537 357.695, 420.005 358.487, 421.625 359.123 C 425.838 360.778, 428.540 359.901, 433.914 355.132 L 439.329 350.327 435.299 349.304 C 431.340 348.299, 431.168 348.370, 425.509 353.333 M 465.126 392.550 C 461.620 393.899, 455.995 396.980, 452.626 399.398 C 445.198 404.730, 433.717 415.050, 434.426 415.759 C 434.708 416.041, 437.681 413.733, 441.032 410.631 C 450.699 401.681, 460.386 395.527, 470.449 391.945 C 473.227 390.955, 474.600 390.135, 473.500 390.122 C 472.400 390.109, 468.632 391.201, 465.126 392.550 M 177.835 398.154 C 180.770 399.864, 185.945 403.767, 189.335 406.827 L 195.500 412.391 190.500 407.133 C 185.956 402.354, 175.508 394.968, 173.369 395.022 C 172.891 395.034, 174.901 396.444, 177.835 398.154 M 142.657 407.058 C 138.893 407.495, 135.669 407.998, 135.491 408.176 C 135.313 408.354, 141.768 408.538, 149.834 408.584 C 157.900 408.630, 166.262 409.177, 168.415 409.799 C 170.568 410.421, 171.918 410.519, 171.415 410.017 C 169.857 408.462, 158.818 405.993, 154.040 406.131 C 151.543 406.204, 146.421 406.621, 142.657 407.058 M 516.500 412.718 C 513.752 413.738, 508.431 414.217, 499.500 414.249 L 486.500 414.296 498.404 415.282 C 508.631 416.129, 511.056 416.032, 515.620 414.594 C 518.541 413.673, 521.199 412.487, 521.525 411.960 C 522.272 410.750, 521.478 410.870, 516.500 412.718 M 476.799 423.024 C 465.423 424.313, 456.737 427.769, 437.885 438.507 C 405.531 456.937, 396.407 460.129, 369.318 462.502 C 351 464.107, 340.616 466.622, 333 471.300 C 328.522 474.050, 321.490 480.504, 318.698 484.424 L 316.527 487.473 319.514 485.365 C 333.766 475.304, 348.207 472.788, 373 476.049 C 391.907 478.535, 403.874 478.275, 416.136 475.111 C 425.675 472.649, 434.607 468.185, 452.634 456.871 C 460.408 451.992, 467.113 448, 467.534 448 C 468.539 448, 457.466 456.323, 448 462.682 C 440.507 467.716, 430.637 473.050, 424.011 475.646 L 420.500 477.021 424.500 476.430 C 430.936 475.480, 441.599 470.778, 455 462.981 C 461.875 458.982, 470.875 453.744, 475 451.343 C 490.861 442.110, 505.276 439.414, 534.036 440.305 C 555.200 440.960, 563.053 440.054, 570.894 436.054 C 573.152 434.902, 575 433.791, 575 433.585 C 575 433.379, 573.313 433.602, 571.250 434.081 C 564.375 435.678, 550.351 435.109, 540.438 432.832 C 535.247 431.640, 531.003 430.402, 531.007 430.082 C 531.011 429.762, 533.374 429.390, 536.257 429.255 C 541.603 429.005, 552.426 427.090, 551.829 426.500 C 551.648 426.320, 547.450 426.623, 542.500 427.172 C 535.913 427.903, 530.417 427.826, 522 426.885 L 510.500 425.600 518.500 424.441 L 526.500 423.281 511.397 423.140 C 503.090 423.063, 493.640 422.809, 490.397 422.576 C 487.154 422.342, 481.035 422.544, 476.799 423.024 M 109.083 424.413 C 109.313 424.639, 113.775 426.014, 119 427.467 C 131.310 430.890, 137 432.959, 137 434.013 C 137 434.479, 135.537 434.438, 133.750 433.922 C 131.358 433.232, 127.200 433.579, 118 435.237 C 102.085 438.106, 77.461 438.282, 63.134 435.631 C 57.983 434.678, 53.585 434.081, 53.362 434.305 C 52.117 435.549, 75.111 442.278, 93 445.904 C 125.403 452.472, 137.651 455.822, 164.500 465.457 C 181.153 471.433, 195.837 476.026, 198.052 475.951 C 198.848 475.924, 196.787 474.857, 193.471 473.580 C 184.621 470.171, 178.401 466.815, 170.167 461.005 C 161.276 454.732, 161.252 453.259, 170.136 459.031 C 178.102 464.208, 192.472 471.151, 201 473.943 C 217.329 479.290, 231.326 479.988, 252.500 476.512 C 274.272 472.938, 295.131 476.508, 306.022 485.672 C 310.205 489.192, 309.714 487.348, 305.006 481.855 C 295.350 470.591, 283.115 465.582, 260 463.432 C 242.490 461.803, 232.459 459.880, 223 456.340 C 215.569 453.558, 194.851 443.192, 184.500 437.077 C 172.299 429.869, 163.697 426.106, 157 425.045 C 149.536 423.862, 138.755 423.824, 131.500 424.954 C 127.216 425.621, 128.004 425.757, 137 425.901 C 150.304 426.115, 161.375 428.079, 167.981 431.397 C 172.931 433.883, 185.443 443.891, 184.624 444.709 C 184.408 444.925, 182.069 443.731, 179.427 442.056 C 174.547 438.961, 159.779 432.942, 152.500 431.081 C 150.300 430.518, 141.975 429.125, 134 427.985 C 126.025 426.846, 117.925 425.485, 116 424.962 C 112.432 423.993, 108.330 423.667, 109.083 424.413 M 465.500 429.484 C 461.611 431.063, 458.174 433.395, 455.732 436.109 C 453.660 438.413, 452.136 440.469, 452.346 440.679 C 452.674 441.008, 472.467 428.866, 473.838 427.495 C 475.049 426.284, 471.003 427.249, 465.500 429.484 M 427.500 433.293 C 418.177 438.340, 408.917 444.251, 409.470 444.803 C 409.745 445.078, 412.564 443.561, 415.735 441.433 C 418.906 439.304, 424.650 435.873, 428.500 433.807 C 432.350 431.742, 435.050 430.051, 434.500 430.049 C 433.950 430.047, 430.800 431.507, 427.500 433.293 M 196 435.358 C 196 436.345, 218.893 448.440, 219.538 447.795 C 219.740 447.594, 214.526 444.599, 207.952 441.140 C 201.378 437.681, 196 435.079, 196 435.358 M 108.009 458.283 C 107.988 460.063, 113.111 468.950, 117.603 474.925 C 122.360 481.253, 130.624 488.437, 137.796 492.480 C 146.506 497.389, 152.470 499.159, 166.818 501.091 C 174.893 502.178, 188.250 503.968, 196.500 505.069 C 242.558 511.214, 272.610 517.617, 290.664 525.133 C 298.220 528.278, 308.541 534.486, 310.805 537.246 C 311.967 538.663, 312.812 538.305, 318.535 533.973 C 337.373 519.715, 365.011 512.251, 435 502.519 C 470.227 497.621, 472.546 497.201, 479.136 494.523 C 492.805 488.969, 507.466 476.107, 513.910 464.018 C 515.674 460.708, 516.942 458, 516.727 458 C 516.512 458, 514.903 460.213, 513.150 462.919 C 505.881 474.136, 489.812 486.150, 476.500 490.320 C 458.859 495.846, 429.407 494.925, 370.500 487.006 C 350.451 484.311, 330.461 487.552, 317.766 495.557 C 313.332 498.353, 312.278 498.663, 311.006 497.549 C 308.012 494.923, 298.649 490.827, 291.154 488.864 C 280.507 486.074, 264.436 486.047, 246.500 488.789 C 213.440 493.844, 206.137 494.468, 180 494.475 C 151.484 494.483, 149.038 494.037, 135.088 486.285 C 127.201 481.901, 115.355 470.378, 111.152 463 C 109.429 459.975, 108.015 457.852, 108.009 458.283 M 498.500 468.592 C 492.025 474.422, 480.108 480.370, 470.287 482.674 C 464.178 484.106, 458.406 484.499, 443.500 484.494 C 433.050 484.490, 422.958 484.148, 421.073 483.733 C 414.240 482.230, 419.048 484.220, 427.665 486.462 C 447.647 491.662, 466.113 492.247, 477.243 488.035 C 486.633 484.481, 497.763 474.779, 503.381 465.250 C 504.526 463.307, 503.869 463.757, 498.500 468.592 M 125.732 472.655 C 139.667 489.382, 153.377 494.666, 176.315 492.147 C 186.621 491.016, 205.365 486.969, 206.760 485.574 C 207.087 485.247, 205.812 485.321, 203.927 485.740 C 202.042 486.158, 191.950 486.500, 181.500 486.500 C 154.730 486.500, 144.139 483.674, 128.062 472.240 L 121.500 467.574 125.732 472.655" stroke="none" fill="#193649" fill-rule="evenodd"/><path d="M 0 313.002 L 0 626.003 313.250 625.752 L 626.500 625.500 626.752 312.750 L 627.003 0 313.502 0 L 0 0 0 313.002 M 0.494 313.500 C 0.494 485.650, 0.609 556.224, 0.750 470.331 C 0.891 384.438, 0.891 243.588, 0.750 157.331 C 0.609 71.074, 0.494 141.350, 0.494 313.500 M 302.250 120.757 C 292.012 121.070, 288.214 122.611, 296.250 123.193 L 300.500 123.500 300.500 129.436 C 300.500 135.295, 300.457 135.384, 297.250 136.215 C 292.721 137.389, 293.193 138.561, 298.750 139.946 C 307.782 142.198, 307.816 142.261, 306.351 154.151 C 304.487 169.274, 304.535 170, 307.406 170 C 310.136 170, 310.313 169.205, 311.936 149.665 C 312.431 143.706, 313.039 138.628, 313.287 138.380 C 313.535 138.132, 314.039 142.558, 314.407 148.215 C 315.699 168.050, 316.042 170, 318.238 170 C 319.805 170, 320.096 169.520, 319.638 167.693 C 319.320 166.425, 318.758 160.424, 318.389 154.358 L 317.719 143.329 321.685 141.743 C 323.865 140.870, 327.323 139.842, 329.368 139.459 C 333.795 138.628, 333.678 136.632, 329.176 136.187 C 326.783 135.950, 325.857 135.277, 325.395 133.439 C 325.059 132.100, 325.035 130.352, 325.341 129.553 C 325.931 128.015, 324.919 127.535, 318.807 126.453 C 315.796 125.919, 315.057 125.324, 314.807 123.226 C 314.447 120.207, 315.227 120.361, 302.250 120.757 M 303 124.975 C 303 126.652, 303.491 126.865, 306.250 126.388 C 311.057 125.558, 312 125.171, 312 124.031 C 312 123.464, 309.975 123, 307.500 123 C 303.686 123, 303 123.301, 303 124.975 M 304.122 128.904 C 303.364 129.384, 303.016 130.217, 303.349 130.755 C 304.045 131.882, 312 130.078, 312 128.793 C 312 127.724, 305.849 127.810, 304.122 128.904 M 315 128.832 C 315 129.962, 322.082 132.067, 323.316 131.304 C 324.862 130.349, 320.946 128, 317.809 128 C 316.264 128, 315 128.374, 315 128.832 M 305 133.237 L 302.500 134.347 304.852 134.756 C 307.862 135.280, 312 134.253, 312 132.981 C 312 131.695, 308.157 131.835, 305 133.237 M 314 132.747 C 314 133.767, 318.557 135, 322.325 135 C 325.792 135, 322.889 133.165, 318.250 132.423 C 315.624 132.004, 314 132.128, 314 132.747 M 259.455 159.455 C 257.839 161.070, 257.001 163.035, 257.004 165.205 C 257.009 169.499, 260.367 175, 262.985 175 C 264.226 175, 265.012 175.672, 265.030 176.750 C 265.058 178.340, 265.148 178.350, 266.018 176.862 C 266.544 175.961, 267.997 174.967, 269.247 174.653 C 271.832 174.004, 275 169.255, 275 166.030 C 275 163.414, 273.245 159.939, 271.087 158.282 C 268.269 156.118, 262.176 156.733, 259.455 159.455 M 356.315 158.007 C 351.754 159.845, 350.663 166.294, 353.989 171.750 C 355.169 173.686, 356.785 175, 357.985 175 C 359.109 175, 360 175.663, 360 176.500 C 360 177.325, 360.450 178, 361 178 C 361.550 178, 362 177.325, 362 176.500 C 362 175.675, 362.867 175, 363.927 175 C 366.900 175, 370 170.313, 370 165.817 C 370 158.924, 363.396 155.154, 356.315 158.007 M 261.965 160.542 C 260.049 162.851, 262.232 164.625, 264.364 162.493 C 265.264 161.593, 266 160.439, 266 159.929 C 266 158.452, 263.368 158.852, 261.965 160.542 M 356.965 160.542 C 355.049 162.851, 357.232 164.625, 359.364 162.493 C 360.264 161.593, 361 160.439, 361 159.929 C 361 158.452, 358.368 158.852, 356.965 160.542 M 292.713 165.621 C 292.321 166.013, 292 167.383, 292 168.667 C 292 171.191, 293.815 171.587, 299.850 170.380 C 302.304 169.889, 302.884 169.315, 302.631 167.630 C 302.367 165.880, 301.518 165.447, 297.868 165.204 C 295.425 165.041, 293.105 165.229, 292.713 165.621 M 322.713 165.621 C 322.321 166.013, 322 167.102, 322 168.042 C 322 169.771, 325.612 171, 330.691 171 C 332.765 171, 333.085 170.585, 332.816 168.250 C 332.529 165.753, 332.083 165.473, 327.963 165.204 C 325.467 165.041, 323.105 165.229, 322.713 165.621 M 238.465 169.930 C 233.813 171.865, 232.239 176.594, 234.594 181.557 C 236.511 185.597, 239.244 187.058, 243.397 186.264 C 246.478 185.675, 249.990 180.907, 249.996 177.306 C 250.005 172.442, 243.078 168.012, 238.465 169.930 M 380.357 169.970 C 377.711 171.065, 375 174.801, 375 177.354 C 375 180.307, 378.949 186, 380.998 186 C 382.008 186, 383.019 186.558, 383.247 187.241 C 383.544 188.133, 384.150 187.993, 385.402 186.741 C 386.359 185.783, 387.549 185, 388.046 185 C 389.277 185, 392 179.563, 392 177.105 C 392 172.362, 384.978 168.059, 380.357 169.970 M 261.241 171.242 C 261.741 172.763, 269 173.558, 269 172.092 C 269 171.526, 268.403 171.292, 267.672 171.572 C 266.942 171.852, 265.104 171.610, 263.586 171.033 C 261.456 170.223, 260.922 170.270, 261.241 171.242 M 356 170.858 C 356 172.783, 363.324 173.903, 364.411 172.144 C 364.702 171.674, 363.879 171.492, 362.582 171.740 C 361.285 171.987, 359.274 171.682, 358.112 171.060 C 356.950 170.438, 356 170.347, 356 170.858 M 237.980 172.524 C 237.284 173.362, 237.026 174.359, 237.405 174.739 C 238.240 175.573, 241.226 173.823, 241.774 172.179 C 242.344 170.469, 239.468 170.731, 237.980 172.524 M 380.104 171.914 C 378.680 172.816, 379.229 176, 380.808 176 C 381.287 176, 382.192 174.875, 382.818 173.500 C 384.044 170.809, 382.903 170.142, 380.104 171.914 M 293 176.058 C 276.486 177.572, 259.053 182.220, 244.267 189.052 C 236.829 192.488, 236.092 193.076, 236.807 195.006 C 237.763 197.593, 237.079 197.614, 250 194.607 C 273.140 189.224, 280.504 188.497, 311.500 188.541 C 342.687 188.585, 353.269 189.700, 376.496 195.392 C 381.994 196.739, 386.551 197.764, 386.622 197.671 C 386.693 197.577, 387.067 196.474, 387.453 195.220 C 388.086 193.159, 387.446 192.614, 380.761 189.525 C 355.218 177.723, 325.154 173.110, 293 176.058 M 378 180.777 C 378 183.567, 385.070 185.313, 386.566 182.893 C 387.029 182.144, 386.547 182.009, 385.076 182.476 C 383.727 182.904, 381.972 182.557, 380.451 181.560 C 379.103 180.677, 378 180.324, 378 180.777 M 237.441 182.418 C 239.404 184.018, 245 184.633, 245 183.250 C 245 182.838, 243.762 182.468, 242.250 182.428 C 240.738 182.389, 238.600 182.015, 237.500 181.597 C 235.529 180.848, 235.528 180.860, 237.441 182.418 M 293.105 194.105 C 270.848 195.705, 246.917 200.318, 229.075 206.449 C 222.124 208.837, 220.425 209, 202.461 209 L 183.273 209 184.828 215.500 L 186.383 222 203.992 222 C 213.676 222, 222.027 221.592, 222.550 221.094 C 224.020 219.691, 235.697 216.349, 248.704 213.608 C 263.828 210.421, 280.908 208.294, 298.250 207.438 L 312 206.759 312 199.879 L 312 193 308.250 193.143 C 306.188 193.221, 299.372 193.654, 293.105 194.105 M 315.011 196.384 C 315.017 198.098, 315.295 201.149, 315.628 203.165 L 316.234 206.831 325.867 207.439 C 349.821 208.951, 372.691 212.820, 391.659 218.569 C 402.738 221.927, 403.356 222, 420.870 222 L 438.763 222 439.927 217.250 C 440.567 214.637, 441.320 211.730, 441.600 210.789 C 442.068 209.221, 440.373 209.047, 421.305 208.710 C 400.634 208.345, 400.424 208.319, 388.683 204.677 C 369.353 198.680, 348.657 195.259, 322.250 193.696 L 315 193.267 315.011 196.384 M 292.500 214.655 C 269.217 216.512, 252.079 219.266, 234.307 224.009 C 223.833 226.805, 221.904 227.002, 204.800 227.030 C 194.139 227.048, 187.126 227.418, 188 227.916 C 189.209 228.606, 212.712 234, 214.509 234 C 214.779 234, 215 234.613, 215 235.362 C 215 236.410, 217.176 236.078, 224.427 233.922 C 235.081 230.754, 254.564 226.665, 266.500 225.091 C 274.871 223.987, 300.798 222.027, 307.250 222.010 C 310.957 222, 311 221.954, 311 218 L 311 214 303.750 214.168 C 299.762 214.261, 294.700 214.480, 292.500 214.655 M 316 217.782 L 316 221.761 326.750 222.432 C 357.628 224.358, 383.606 228.656, 405.250 235.420 C 409.350 236.701, 410 236.708, 410 235.471 C 410 234.683, 411.012 233.825, 412.250 233.565 C 413.488 233.305, 419.450 232.110, 425.500 230.909 C 431.550 229.708, 436.928 228.337, 437.450 227.863 C 437.986 227.376, 430.139 226.994, 419.450 226.987 C 403.545 226.976, 399.511 226.664, 394.343 225.044 C 378.454 220.062, 351.855 215.839, 327.750 214.470 L 316 213.803 316 217.782 M 283 232.115 C 259.162 234.015, 233.700 238.537, 215.750 244.059 L 206 247.058 206 251.596 C 206 255.448, 206.265 256.057, 207.750 255.620 C 228.557 249.500, 263.655 244.472, 293.391 243.350 L 311 242.686 311 236.843 L 311 231 302.250 231.139 C 297.438 231.216, 288.775 231.655, 283 232.115 M 316 236.724 L 316 242.705 332.250 243.406 C 352.962 244.299, 375.914 247.164, 397.500 251.550 C 406.850 253.450, 415.512 255.281, 416.750 255.619 C 418.843 256.190, 419 255.917, 419 251.698 L 419 247.163 412.750 245.109 C 390.862 237.918, 360.913 233.004, 329.250 231.410 L 316 230.743 316 236.724 M 251.797 256.034 C 232.599 258.356, 212.878 262.217, 197.708 266.624 C 190.993 268.575, 185.317 270.353, 185.094 270.575 C 184.559 271.107, 188.127 279, 188.902 278.999 C 189.231 278.998, 194.962 276.779, 201.638 274.068 C 220.964 266.220, 240.310 260.531, 261.500 256.466 C 275.722 253.737, 272.113 253.577, 251.797 256.034 M 363 256.482 C 386.837 261.302, 409.777 268.128, 427.197 275.584 C 431.586 277.463, 435.519 279, 435.937 279 C 436.794 279, 440.536 271.149, 439.906 270.671 C 438.816 269.842, 420.251 264.697, 410.500 262.521 C 397.230 259.559, 384.961 257.582, 367.155 255.534 C 349.764 253.535, 349.136 253.678, 363 256.482 M 297.500 256.034 C 258.705 258.479, 214.877 271.067, 176.679 290.734 C 167.850 295.280, 144.665 310.116, 143.536 311.941 C 143.207 312.474, 154.383 332.618, 168.373 356.705 C 182.363 380.792, 198.514 408.600, 204.265 418.500 L 214.721 436.500 223.610 441.007 C 237.670 448.134, 254.472 453.075, 276.211 456.473 C 296.204 459.598, 307.301 468.293, 311.315 483.978 L 312.704 489.407 314.493 483.953 C 319.932 467.376, 330.561 459.560, 353.355 455.377 C 374.374 451.519, 391.701 445.982, 405.185 438.813 L 410.869 435.791 428.116 405.646 C 437.601 389.065, 453.595 361.378, 463.658 344.117 C 473.720 326.856, 481.678 312.287, 481.341 311.742 C 481.004 311.197, 475.277 307.177, 468.614 302.809 C 420.336 271.159, 352.360 252.577, 297.500 256.034 M 296.137 274.180 C 285.909 275.462, 264.441 281.024, 252.500 285.486 C 228.526 294.446, 206.563 305.850, 183 321.577 C 163.944 334.296, 163.039 335.569, 178.500 327.909 C 193.718 320.370, 212.133 312.838, 228.297 307.543 C 242.694 302.828, 265.932 296.760, 267.416 297.329 C 268.803 297.862, 275.056 308.117, 280.015 317.995 C 292.607 343.074, 302.699 379.677, 307.450 417.500 C 309.563 434.325, 312 464.615, 312 474.060 C 312 478.687, 312.417 482, 313 482 C 313.550 482, 314 479.541, 314 476.536 C 314 473.531, 314.445 466.668, 314.988 461.286 C 315.531 455.904, 316.676 444.525, 317.531 436 C 321.628 395.169, 329.859 360.530, 342.481 331 C 346.635 321.283, 353.930 307.447, 358.121 301.336 L 360.978 297.172 367.239 298.614 C 389.288 303.691, 420.481 315.121, 444.250 326.832 C 451.812 330.559, 457.997 333.358, 457.992 333.054 C 457.983 332.389, 429.990 313.722, 421.500 308.719 C 412.794 303.589, 390.359 292.524, 381.303 288.893 C 348.644 275.801, 321.135 271.049, 296.137 274.180 M 262.750 331.305 C 260.137 331.872, 258 332.613, 258 332.952 C 258 333.291, 260.363 335.885, 263.250 338.717 L 268.500 343.865 273.864 342.638 L 279.228 341.410 274.013 335.705 C 271.146 332.567, 268.507 330.062, 268.150 330.138 C 267.792 330.213, 265.363 330.739, 262.750 331.305 M 354.963 336.537 L 349.725 341.841 355.073 343.429 L 360.420 345.017 365.685 339.817 C 368.581 336.957, 370.783 334.450, 370.579 334.245 C 370.374 334.041, 367.955 333.280, 365.204 332.554 L 360.201 331.234 354.963 336.537 M 240.250 336.119 C 238.463 336.635, 237 337.399, 237 337.816 C 237 338.234, 239.209 340.751, 241.908 343.409 L 246.816 348.244 251.908 347.022 C 254.709 346.350, 257 345.491, 257 345.113 C 257 344.734, 254.847 342.304, 252.216 339.712 C 247.324 334.894, 245.936 334.477, 240.250 336.119 M 375.536 341.964 C 372.121 345.431, 371.077 347.066, 372.073 347.388 C 381.781 350.521, 380.755 350.666, 386.103 345.399 C 388.796 342.746, 391 340.314, 391 339.995 C 391 339.459, 382.953 337, 381.198 337 C 380.773 337, 378.225 339.234, 375.536 341.964 M 224.500 339.491 C 223.950 339.675, 222.191 340.116, 220.592 340.471 L 217.684 341.117 223.092 346.601 C 228.288 351.869, 228.657 352.058, 232.500 351.429 C 239.171 350.338, 239.260 349.897, 233.953 344.245 C 229.497 339.499, 227.495 338.492, 224.500 339.491 M 395.536 346.964 C 392.136 350.415, 391.082 352.064, 392.073 352.376 C 392.858 352.622, 394.930 353.279, 396.677 353.835 C 399.632 354.775, 400.239 354.519, 405.362 350.173 C 408.391 347.603, 410.899 345.216, 410.935 344.869 C 410.994 344.293, 403.267 342, 401.270 342 C 400.805 342, 398.225 344.234, 395.536 346.964 M 192.500 345.878 C 188.925 346.643, 189.045 347.085, 194.508 353.331 C 198.697 358.119, 198.776 358.156, 203.367 357.468 C 205.915 357.086, 208 356.471, 208 356.102 C 208 354.985, 197.508 344.991, 196.469 345.118 C 195.936 345.183, 194.150 345.525, 192.500 345.878 M 425.509 353.333 C 420.537 357.695, 420.005 358.487, 421.625 359.123 C 425.838 360.778, 428.540 359.901, 433.914 355.132 L 439.329 350.327 435.299 349.304 C 431.340 348.299, 431.168 348.370, 425.509 353.333 M 465.126 392.550 C 461.620 393.899, 455.995 396.980, 452.626 399.398 C 445.198 404.730, 433.717 415.050, 434.426 415.759 C 434.708 416.041, 437.681 413.733, 441.032 410.631 C 450.699 401.681, 460.386 395.527, 470.449 391.945 C 473.227 390.955, 474.600 390.135, 473.500 390.122 C 472.400 390.109, 468.632 391.201, 465.126 392.550 M 177.835 398.154 C 180.770 399.864, 185.945 403.767, 189.335 406.827 L 195.500 412.391 190.500 407.133 C 185.956 402.354, 175.508 394.968, 173.369 395.022 C 172.891 395.034, 174.901 396.444, 177.835 398.154 M 142.657 407.058 C 138.893 407.495, 135.669 407.998, 135.491 408.176 C 135.313 408.354, 141.768 408.538, 149.834 408.584 C 157.900 408.630, 166.262 409.177, 168.415 409.799 C 170.568 410.421, 171.918 410.519, 171.415 410.017 C 169.857 408.462, 158.818 405.993, 154.040 406.131 C 151.543 406.204, 146.421 406.621, 142.657 407.058 M 516.500 412.718 C 513.752 413.738, 508.431 414.217, 499.500 414.249 L 486.500 414.296 498.404 415.282 C 508.631 416.129, 511.056 416.032, 515.620 414.594 C 518.541 413.673, 521.199 412.487, 521.525 411.960 C 522.272 410.750, 521.478 410.870, 516.500 412.718 M 476.799 423.024 C 465.423 424.313, 456.737 427.769, 437.885 438.507 C 405.531 456.937, 396.407 460.129, 369.318 462.502 C 351 464.107, 340.616 466.622, 333 471.300 C 328.522 474.050, 321.490 480.504, 318.698 484.424 L 316.527 487.473 319.514 485.365 C 333.766 475.304, 348.207 472.788, 373 476.049 C 391.907 478.535, 403.874 478.275, 416.136 475.111 C 425.675 472.649, 434.607 468.185, 452.634 456.871 C 460.408 451.992, 467.113 448, 467.534 448 C 468.539 448, 457.466 456.323, 448 462.682 C 440.507 467.716, 430.637 473.050, 424.011 475.646 L 420.500 477.021 424.500 476.430 C 430.936 475.480, 441.599 470.778, 455 462.981 C 461.875 458.982, 470.875 453.744, 475 451.343 C 490.861 442.110, 505.276 439.414, 534.036 440.305 C 555.200 440.960, 563.053 440.054, 570.894 436.054 C 573.152 434.902, 575 433.791, 575 433.585 C 575 433.379, 573.313 433.602, 571.250 434.081 C 564.375 435.678, 550.351 435.109, 540.438 432.832 C 535.247 431.640, 531.003 430.402, 531.007 430.082 C 531.011 429.762, 533.374 429.390, 536.257 429.255 C 541.603 429.005, 552.426 427.090, 551.829 426.500 C 551.648 426.320, 547.450 426.623, 542.500 427.172 C 535.913 427.903, 530.417 427.826, 522 426.885 L 510.500 425.600 518.500 424.441 L 526.500 423.281 511.397 423.140 C 503.090 423.063, 493.640 422.809, 490.397 422.576 C 487.154 422.342, 481.035 422.544, 476.799 423.024 M 109.083 424.413 C 109.313 424.639, 113.775 426.014, 119 427.467 C 131.310 430.890, 137 432.959, 137 434.013 C 137 434.479, 135.537 434.438, 133.750 433.922 C 131.358 433.232, 127.200 433.579, 118 435.237 C 102.085 438.106, 77.461 438.282, 63.134 435.631 C 57.983 434.678, 53.585 434.081, 53.362 434.305 C 52.117 435.549, 75.111 442.278, 93 445.904 C 125.403 452.472, 137.651 455.822, 164.500 465.457 C 181.153 471.433, 195.837 476.026, 198.052 475.951 C 198.848 475.924, 196.787 474.857, 193.471 473.580 C 184.621 470.171, 178.401 466.815, 170.167 461.005 C 161.276 454.732, 161.252 453.259, 170.136 459.031 C 178.102 464.208, 192.472 471.151, 201 473.943 C 217.329 479.290, 231.326 479.988, 252.500 476.512 C 274.272 472.938, 295.131 476.508, 306.022 485.672 C 310.205 489.192, 309.714 487.348, 305.006 481.855 C 295.350 470.591, 283.115 465.582, 260 463.432 C 242.490 461.803, 232.459 459.880, 223 456.340 C 215.569 453.558, 194.851 443.192, 184.500 437.077 C 172.299 429.869, 163.697 426.106, 157 425.045 C 149.536 423.862, 138.755 423.824, 131.500 424.954 C 127.216 425.621, 128.004 425.757, 137 425.901 C 150.304 426.115, 161.375 428.079, 167.981 431.397 C 172.931 433.883, 185.443 443.891, 184.624 444.709 C 184.408 444.925, 182.069 443.731, 179.427 442.056 C 174.547 438.961, 159.779 432.942, 152.500 431.081 C 150.300 430.518, 141.975 429.125, 134 427.985 C 126.025 426.846, 117.925 425.485, 116 424.962 C 112.432 423.993, 108.330 423.667, 109.083 424.413 M 465.500 429.484 C 461.611 431.063, 458.174 433.395, 455.732 436.109 C 453.660 438.413, 452.136 440.469, 452.346 440.679 C 452.674 441.008, 472.467 428.866, 473.838 427.495 C 475.049 426.284, 471.003 427.249, 465.500 429.484 M 427.500 433.293 C 418.177 438.340, 408.917 444.251, 409.470 444.803 C 409.745 445.078, 412.564 443.561, 415.735 441.433 C 418.906 439.304, 424.650 435.873, 428.500 433.807 C 432.350 431.742, 435.050 430.051, 434.500 430.049 C 433.950 430.047, 430.800 431.507, 427.500 433.293 M 196 435.358 C 196 436.345, 218.893 448.440, 219.538 447.795 C 219.740 447.594, 214.526 444.599, 207.952 441.140 C 201.378 437.681, 196 435.079, 196 435.358 M 108.009 458.283 C 107.988 460.063, 113.111 468.950, 117.603 474.925 C 122.360 481.253, 130.624 488.437, 137.796 492.480 C 146.506 497.389, 152.470 499.159, 166.818 501.091 C 174.893 502.178, 188.250 503.968, 196.500 505.069 C 242.558 511.214, 272.610 517.617, 290.664 525.133 C 298.220 528.278, 308.541 534.486, 310.805 537.246 C 311.967 538.663, 312.812 538.305, 318.535 533.973 C 337.373 519.715, 365.011 512.251, 435 502.519 C 470.227 497.621, 472.546 497.201, 479.136 494.523 C 492.805 488.969, 507.466 476.107, 513.910 464.018 C 515.674 460.708, 516.942 458, 516.727 458 C 516.512 458, 514.903 460.213, 513.150 462.919 C 505.881 474.136, 489.812 486.150, 476.500 490.320 C 458.859 495.846, 429.407 494.925, 370.500 487.006 C 350.451 484.311, 330.461 487.552, 317.766 495.557 C 313.332 498.353, 312.278 498.663, 311.006 497.549 C 308.012 494.923, 298.649 490.827, 291.154 488.864 C 280.507 486.074, 264.436 486.047, 246.500 488.789 C 213.440 493.844, 206.137 494.468, 180 494.475 C 151.484 494.483, 149.038 494.037, 135.088 486.285 C 127.201 481.901, 115.355 470.378, 111.152 463 C 109.429 459.975, 108.015 457.852, 108.009 458.283 M 498.500 468.592 C 492.025 474.422, 480.108 480.370, 470.287 482.674 C 464.178 484.106, 458.406 484.499, 443.500 484.494 C 433.050 484.490, 422.958 484.148, 421.073 483.733 C 414.240 482.230, 419.048 484.220, 427.665 486.462 C 447.647 491.662, 466.113 492.247, 477.243 488.035 C 486.633 484.481, 497.763 474.779, 503.381 465.250 C 504.526 463.307, 503.869 463.757, 498.500 468.592 M 125.732 472.655 C 139.667 489.382, 153.377 494.666, 176.315 492.147 C 186.621 491.016, 205.365 486.969, 206.760 485.574 C 207.087 485.247, 205.812 485.321, 203.927 485.740 C 202.042 486.158, 191.950 486.500, 181.500 486.500 C 154.730 486.500, 144.139 483.674, 128.062 472.240 L 121.500 467.574 125.732 472.655" stroke="none" fill="#fafafa" fill-rule="evenodd"/></svg>